Coordinates
version=1
nRows=22
nColumns=24
inDegrees=yes

Units are S.I. units (second, meters, Newtons, ...)
Angles are in degrees.

endheader
time	pelvis_tilt	pelvis_list	pelvis_rotation	pelvis_tx	pelvis_ty	pelvis_tz	hip_flexion_r	hip_adduction_r	hip_rotation_r	knee_angle_r	ankle_angle_r	subtalar_angle_r	mtp_angle_r	hip_flexion_l	hip_adduction_l	hip_rotation_l	knee_angle_l	ankle_angle_l	subtalar_angle_l	mtp_angle_l	lumbar_extension	lumbar_bending	lumbar_rotation
      5.80000000	     12.73120872	      2.70522479	      9.17210363	      1.38791281	      0.91712107	     -0.24890380	      7.18118057	     -4.08941412	     -3.69678686	      0.62881049	     13.90835372	     -1.80887738	      0.00000000	    -29.73372753	      1.82932257	     14.34488461	     -9.88770467	     23.29016367	      2.79945295	      0.00000000	    -29.38894105	      1.65063602	    -15.81956830
      5.80500000	     12.83947811	      2.43730587	      9.30919321	      1.39485987	      0.91662941	     -0.24861788	      7.11170238	     -3.74117581	     -3.60391174	      0.34202428	     13.75084813	     -2.07051054	      0.00000000	    -29.97631939	      1.39804924	     14.05918896	    -10.48784414	     23.28058904	      3.38247504	      0.00000000	    -29.43915173	      2.01694227	    -15.73967285
      5.81000000	     12.95823081	      2.12360709	      9.44770734	      1.40185152	      0.91619057	     -0.24830719	      7.04268274	     -3.33509759	     -3.51857533	     -0.03845672	     13.60438550	     -2.34297381	      0.00000000	    -30.20616881	      0.91856259	     13.72812677	    -11.12238450	     23.24396534	      3.98994372	      0.00000000	    -29.49056099	      2.42830802	    -15.64115133
      5.81500000	     13.23415830	      1.76342484	      9.52349879	      1.40889464	      0.91592437	     -0.24790332	      6.81288161	     -2.83616148	     -3.36550146	     -0.47812887	     13.45935078	     -2.65910985	      0.00000000	    -30.60050063	      0.39174464	     13.26674212	    -11.75178278	     23.14933806	      4.65153759	      0.00000000	    -29.70813527	      2.89078972	    -15.46965412
      5.82000000	     13.26949767	      1.36956900	      9.71595140	      1.41605361	      0.91551062	     -0.24762279	      6.83247098	     -2.35220453	     -3.36180405	     -1.00732136	     13.32300462	     -2.90926660	      0.00000000	    -30.68561700	     -0.17621417	     12.94885104	    -12.48040396	     23.04231604	      5.27401121	      0.00000000	    -29.62492133	      3.39089996	    -15.38042642
      5.82500000	     13.36902444	      0.94268124	      9.86479094	      1.42324859	      0.91518418	     -0.24723936	      6.79294350	     -1.80656084	     -3.29830202	     -1.59379986	     13.18034322	     -3.21071817	      0.00000000	    -30.81894865	     -0.77486182	     12.50499597	    -13.23808815	     22.90060217	      6.00725993	      0.00000000	    -29.60715407	      3.91353594	    -15.25237257
      5.83000000	     13.61545083	      0.47475206	      9.93874230	      1.43046215	      0.91500663	     -0.24673515	      6.60524763	     -1.17269854	     -3.12525101	     -2.21656904	     13.00778777	     -3.57905936	      0.00000000	    -31.10286428	     -1.40645988	     11.91705641	    -13.99984941	     22.70683310	      6.78121493	      0.00000000	    -29.75546990	      4.46700627	    -15.05118621
      5.83500000	     13.73977014	     -0.01813850	     10.09232815	      1.43776542	      0.91477931	     -0.24631264	      6.53443424	     -0.53808299	     -3.07724640	     -2.88181586	     12.84678150	     -3.88924125	      0.00000000	    -31.20956693	     -2.07819191	     11.41769467	    -14.84324186	     22.48075143	      7.54763029	      0.00000000	    -29.74147916	      5.05700325	    -14.90018913
      5.84000000	     13.79042536	     -0.53977544	     10.27323171	      1.44517943	      0.91453138	     -0.24591101	      6.53261774	      0.11578018	     -3.08176815	     -3.57537293	     12.69656841	     -4.17124578	      0.00000000	    -31.20643119	     -2.77928548	     10.93626754	    -15.73837551	     22.18672780	      8.29417566	      0.00000000	    -29.61751627	      5.67063075	    -14.75293578
      5.84500000	     13.96829048	     -1.08147421	     10.36920264	      1.45252699	      0.91441143	     -0.24534382	      6.40571963	      0.83608334	     -2.93449481	     -4.28649064	     12.48387512	     -4.56267514	      0.00000000	    -31.31690771	     -3.48775182	     10.30558846	    -16.67081669	     21.86655589	      9.14073770	      0.00000000	    -29.66084330	      6.28823235	    -14.55348791
      5.85000000	     13.98442781	     -1.64473765	     10.56295670	      1.45997387	      0.91420277	     -0.24495544	      6.42824673	      1.53181612	     -2.97650027	     -5.00247675	     12.31246596	     -4.78036143	      0.00000000	    -31.19326311	     -4.22675923	      9.82925847	    -17.70617728	     21.50459610	      9.89673625	      0.00000000	    -29.48514065	      6.95309466	    -14.42063827
      5.85500000	     14.03610444	     -2.20777673	     10.73345671	      1.46743365	      0.91406877	     -0.24443037	      6.40700348	      2.25147432	     -2.95489383	     -5.72319789	     12.12724202	     -5.08187199	      0.00000000	    -31.07930774	     -4.97946484	      9.26224559	    -18.77892424	     21.07168429	     10.75679102	      0.00000000	    -29.35363419	      7.59547111	    -14.30115984
      5.86000000	     14.16923442	     -2.79530015	     10.85587917	      1.47493901	      0.91401331	     -0.24378864	      6.29447705	      3.03393306	     -2.83103182	     -6.43762242	     11.95239419	     -5.53630240	      0.00000000	    -31.04081913	     -5.75452912	      8.60224866	    -19.86705448	     20.57939800	     11.61329654	      0.00000000	    -29.30944069	      8.23979619	    -14.11382612
      5.86500000	     14.21373013	     -3.38423109	     11.03348910	      1.48244099	      0.91394840	     -0.24325551	      6.26029007	      3.78655498	     -2.82761449	     -7.14226557	     11.77465128	     -5.79902345	      0.00000000	    -30.84487596	     -6.53686832	      8.06227483	    -21.04541179	     20.02722911	     12.41944882	      0.00000000	    -29.15736624	      8.90974657	    -13.98707414
      5.87000000	     14.24448612	     -3.96548337	     11.21722980	      1.48993936	      0.91391915	     -0.24272086	      6.22309648	      4.53067580	     -2.81704148	     -7.82171080	     11.60556105	     -6.05538809	      0.00000000	    -30.59029266	     -7.31526079	      7.55606164	    -22.28412751	     19.40366493	     13.21008040	      0.00000000	    -28.98712735	      9.56961659	    -13.87715142
      5.87500000	     14.27340769	     -4.55757478	     11.40167810	      1.49744873	      0.91391647	     -0.24215748	      6.17725922	      5.29296485	     -2.80877332	     -8.47951494	     11.45045941	     -6.35334688	      0.00000000	    -30.29051337	     -8.11079763	      7.04038676	    -23.57850920	     18.73347226	     13.99464459	      0.00000000	    -28.80985009	     10.23781319	    -13.78240370
      5.88000000	     14.30268328	     -5.13747999	     11.59059096	      1.50492665	      0.91394525	     -0.24156052	      6.11457038	      6.04891089	     -2.79691519	     -9.10445216	     11.31995825	     -6.67959565	      0.00000000	    -29.94078801	     -8.90198076	      6.53725415	    -24.93914088	     18.01842610	     14.71638964	      0.00000000	    -28.63799630	     10.88644463	    -13.70460719
      5.88500000	     14.31585433	     -5.71010604	     11.78910355	      1.51240773	      0.91401736	     -0.24100630	      6.04898535	      6.79056617	     -2.79337249	     -9.69584095	     11.21222520	     -6.93337368	      0.00000000	    -29.53207502	     -9.68447957	      6.11068482	    -26.34094106	     17.21766535	     15.39138368	      0.00000000	    -28.44229083	     11.53462318	    -13.63804777
      5.89000000	     14.31988164	     -6.26856085	     12.00132747	      1.51984742	      0.91411336	     -0.24045009	      5.97751123	      7.51755728	     -2.80741330	    -10.25257347	     11.13640378	     -7.19771799	      0.00000000	    -29.05881829	    -10.46058599	      5.72332612	    -27.80371992	     16.38098105	     15.99589111	      0.00000000	    -28.23824378	     12.16921203	    -13.60190851
      5.89500000	     14.31305516	     -6.81063387	     12.22448841	      1.52724761	      0.91424017	     -0.23990536	      5.89999537	      8.22568789	     -2.83682353	    -10.77114476	     11.09324469	     -7.44724077	      0.00000000	    -28.52275184	    -11.22241588	      5.39386562	    -29.31557837	     15.50005649	     16.52079579	      0.00000000	    -28.02479413	     12.78838530	    -13.59152638
      5.90000000	     14.29351937	     -7.33507803	     12.46350486	      1.53459845	      0.91439059	     -0.23938638	      5.81948054	      8.91126845	     -2.88472255	    -11.25179591	     11.08643927	     -7.68255711	      0.00000000	    -27.91824345	    -11.96922947	      5.12741555	    -30.87624257	     14.58709070	     16.95938752	      0.00000000	    -27.79823253	     13.39322940	    -13.61144814
      5.90500000	     14.26287931	     -7.83629410	     12.71448238	      1.54190688	      0.91457101	     -0.23889945	      5.73073323	      9.56810471	     -2.94937428	    -11.69054126	     11.11483810	     -7.88856456	      0.00000000	    -27.25245410	    -12.68974506	      4.93474736	    -32.47281902	     13.64280856	     17.29750799	      0.00000000	    -27.55950942	     13.97762455	    -13.65600690
